<svg xmlns="http://www.w3.org/2000/svg" viewBox="0 0 76.91 32.86"><defs><style>.cls-1{fill:#d75f5b}.cls-2{fill:#fff;stroke:#d75f5b;stroke-width:.56px}.cls-3,.cls-4{fill:#201600}.cls-3{opacity:.55}</style></defs><title>logo-litera</title><g id="Слой_2" data-name="Слой 2"><path class="cls-1" d="M3.44 8.54h73.47v21.18H3.44z"/><path class="cls-2" d="M.28 12.47h72.16v20.11H.28z"/><path class="cls-3" d="M50.67 32.58H52v-4.83a3.81 3.81 0 0 0 2.62 1 4 4 0 0 0 0-7.94 3.8 3.8 0 0 0-2.62 1V21h-1.33v11.6m-8.5-7.75a4 4 0 0 0 3.93 4.05 3.93 3.93 0 0 0 3.62-2.48h-1.58a2.5 2.5 0 0 1-2 1.07 2.58 2.58 0 0 1-2.46-1.94H50a4.27 4.27 0 0 0 .06-.72 3.93 3.93 0 1 0-7.85 0m16.92.05a3.93 3.93 0 0 0 3.87 4 3.79 3.79 0 0 0 2.62-1.05v1h1.29V21h-1.33v1A3.79 3.79 0 0 0 63 20.9a3.93 3.93 0 0 0-3.87 4m-19.57-2.53a1.7 1.7 0 0 1 .76 1.36v5h1.22v-5.31a3.57 3.57 0 0 0-.62-1.5c-.68-1-2.77-.85-2.77-.85h-4.74v7.66h1.24v-6.57h2.18v6.57h1.27v-6.57h.21a3 3 0 0 1 1.24.22m-8.81 6.36h1.19v-7.67h-1.18v7.67m29.74-3.83A2.53 2.53 0 1 1 63 27.49a2.56 2.56 0 0 1-2.53-2.59m-8.5 0a2.53 2.53 0 1 1 2.53 2.59 2.56 2.56 0 0 1-2.5-2.64m-8.38-.67a2.54 2.54 0 0 1 5 0h-5"/><path class="cls-4" d="M27.22 28.48A7.09 7.09 0 0 1 21.64 22V0h1.23v18.35a4.1 4.1 0 0 0 2.78 2.6 19.42 19.42 0 0 0 3.66.11v7.67h-.17a12.56 12.56 0 0 1-1.92-.27M5.66 25.74c-1.3-1.87-2.43-4.4-1.3-6.72a5.59 5.59 0 0 1 4.08-3.25 4.22 4.22 0 0 1 4 1.49v1.68c-1.06-1.42-2.3-2.27-4.19-1.88a4.37 4.37 0 0 0-1.11 7.88 4.44 4.44 0 0 0 4.73-.34 4.2 4.2 0 0 0 1.5-2.6V0h7.09v22.38a7.89 7.89 0 0 1-5 6.11 9.46 9.46 0 0 1-3 .5 8.51 8.51 0 0 1-6.76-3.24m34.62 2.98v-5a1.7 1.7 0 0 0-.76-1.36 3.5 3.5 0 0 0-1.45-.21v6.57h-1.27v-6.57h-2.18v6.57h-1.25v-7.66h4.74s2.09-.12 2.77.85a3.57 3.57 0 0 1 .62 1.5v5.31h-1.22m-9.58 0l.01-7.67h1.22l-.03 7.67h-1.2m28.34-3.85a3.93 3.93 0 0 1 3.87-4A3.79 3.79 0 0 1 65.58 22v-1h1.29v7.73h-1.29v-1A3.79 3.79 0 0 1 63 28.84a3.93 3.93 0 0 1-3.87-4m1.4 0A2.53 2.53 0 1 0 63 22.3a2.56 2.56 0 0 0-2.53 2.59m-9.8 7.69V21H52v.93a3.8 3.8 0 0 1 2.62-1 4 4 0 0 1 0 7.94 3.81 3.81 0 0 1-2.62-1v4.83h-1.33M52 24.85a2.53 2.53 0 1 0 2.53-2.59A2.56 2.56 0 0 0 52 24.85m-9.83-.03a3.93 3.93 0 1 1 7.85 0 4.27 4.27 0 0 1-.06.72h-6.33a2.58 2.58 0 0 0 2.46 1.94 2.5 2.5 0 0 0 2-1.07h1.57a3.93 3.93 0 0 1-3.56 2.49 4 4 0 0 1-3.93-4.08m1.44-.65h5a2.54 2.54 0 0 0-5 0m-11.27-9.36a1 1 0 0 1 1.07 1.1 1 1 0 0 1-.56.9 1.05 1.05 0 0 1 .76 1.11 1.12 1.12 0 0 1-1.17 1.21h-1.83v-4.32zM32 16.52c.39 0 .46-.24.46-.41a.4.4 0 0 0-.46-.43h-.42v.84zm0 1.76c.16 0 .54 0 .54-.46s-.37-.43-.54-.43h-.46v.89zm3.18-2.12v1.6l.89-1.6h.86v3H36V17.5l-.88 1.65h-.87v-3zm5.16 0v2.25h.36V20h-.79v-.86h-1.57V20h-.79v-1.59c.22 0 .41-.19.48-.53a2.49 2.49 0 0 0 0-.58v-1.14zm-.86.74h-.59v.54a1.34 1.34 0 0 1-.28 1h.87zm3.65-.74H44v3h-.86v-.36a.94.94 0 0 1-.81.47c-.63 0-1.15-.6-1.15-1.61 0-.75.33-1.6 1.15-1.6a.89.89 0 0 1 .81.48zm0 1.49c0-.43-.22-.71-.54-.71s-.53.36-.53.71.16.72.53.72.58-.28.58-.72zm3.3-1.49a.64.64 0 0 1 .71.69.74.74 0 0 1-.42.74.8.8 0 0 1-.25 1.55h-1.66v-3zM46 17.33c.09 0 .26 0 .26-.27a.23.23 0 0 0-.26-.25h-.37v.52zm0 1.17a.26.26 0 0 0 .29-.29.27.27 0 0 0-.29-.3h-.39v.58zm1.93-2.34h.89v1.05h.82v-1.05h.89v3h-.89V18h-.82v1.2h-.89zm4.33 0v1.6l.89-1.6H54v3h-.89V17.5l-.88 1.65h-.87v-3zm2.58 0h.89v2.25h.75v-2.25h.89v2.25h.36V20h-.79v-.86h-2.1zm3.9.78h-.64v-.78h2.18v.78h-.64v2.21h-.89zm3.73-.78a.64.64 0 0 1 .71.69.74.74 0 0 1-.43.74.8.8 0 0 1-.25 1.55h-1.65v-3zm-.39 1.17c.09 0 .26 0 .26-.27a.23.23 0 0 0-.26-.25h-.37v.52zm0 1.17a.26.26 0 0 0 .29-.29.27.27 0 0 0-.29-.3h-.39v.58zm1.75-.85a1.48 1.48 0 1 1 3 0 1.48 1.48 0 1 1-3 0zm2 0c0-.49-.2-.82-.55-.82s-.55.34-.55.82.19.83.55.83.58-.34.58-.83z"/></g></svg>